<?xml version="1.0" encoding="UTF-8" standalone="no"?>
<svg
   version="1.1"
   width="240.00011pt"
   height="240.00011pt"
   id="svg57"
   viewBox="0 0 240.00011 240.00011"
   sodipodi:docname="BLUESTONE LOGO CDRR.cdr"
   xmlns:inkscape="http://www.inkscape.org/namespaces/inkscape"
   xmlns:sodipodi="http://sodipodi.sourceforge.net/DTD/sodipodi-0.dtd"
   xmlns="http://www.w3.org/2000/svg"
   xmlns:svg="http://www.w3.org/2000/svg">
  <defs
     id="defs61" />
  <sodipodi:namedview
     id="namedview59"
     pagecolor="#ffffff"
     bordercolor="#000000"
     borderopacity="0.25"
     inkscape:showpageshadow="2"
     inkscape:pageopacity="0.0"
     inkscape:pagecheckerboard="0"
     inkscape:deskcolor="#d1d1d1"
     inkscape:document-units="pt" />
  <g
     id="Layer1000">
    <path
       d="m 127.807,77.8194 -2.3035,0.0447 0.3243,26.2961 1.7787,1.0928 z"
       style="fill:#ffffff;fill-rule:evenodd;stroke:#ffffff;stroke-width:0.5669;stroke-linecap:butt;stroke-linejoin:miter;stroke-dasharray:none"
       id="path2" />
    <path
       d="m 87.266,140.7006 c 0.5128,-0.6891 0.9037,-0.7784 1.6356,-1.3028 3.0441,-2.1804 3.6017,-4.3341 4.3869,-5.129 -0.0805,-1.9658 2.7102,-8.488 -4.2616,-14.4767 -2.8908,-2.4829 -9.3492,-4.585 -13.3744,-6.7867 -3.7587,-2.056 -8.4787,-6.0029 -8.2182,-12.0325 0.1242,-2.8655 1.6226,-5.534 3.113,-7.0483 1.9443,-1.919 4.3384,-2.9327 7.0642,-3.2797 0.0635,1.9596 -0.2225,0.7912 -3.0903,2.9384 -3.9776,2.977 -5.0332,8.4294 -2.0239,12.7394 6.3771,9.1358 24.928,8.8359 24.8779,23.2183 -0.0136,3.7499 -1.4437,6.7878 -3.1179,8.9789 -2.0536,2.6881 -3.9744,3.5935 -6.8348,5.402 8.2111,-0.3563 16.0267,-6.6296 17.0979,-16.0627 0.1542,-5.3453 -1.332,-8.89 -3.977,-11.8973 -2.8953,-3.2918 -5.4603,-4.6204 -9.1782,-6.5196 0.8943,-0.8076 2.4491,-2.5112 3.4027,-3.1312 0.1437,-0.6811 -0.0638,-0.1338 0.3563,-0.7673 0.6619,-0.9995 0.7869,-0.8858 1.6254,-2.463 3.8848,-7.3074 0.591,-16.9633 -6.1339,-18.8557 l -9.7248,-0.4652 -0.125,0.525 0.5085,0.1947 c 0.3348,0.2857 0.4862,-0.2055 0.2347,1.3062 l 1.9962,-0.1587 -0.0561,2.3635 -0.2716,0.7469 -2.2776,0.0051 c -0.3334,7.4282 -0.1381,14.9386 -0.2095,22.4509 l -1.7782,-1.0928 c -0.1899,-5.36 0.2333,-13.9033 -0.0175,-18.4906 -0.0528,-0.9643 -0.3022,-1.4578 -0.2518,-2.4956 -0.9308,0.2177 -1.4076,0.7974 -2.2421,0.3376 -0.3138,-0.7832 -0.1594,-0.718 0.2012,-1.0953 l 0.0267,-0.7256 1.9323,-0.5891 c 0.2129,-1.7645 -0.3262,-1.5928 -0.0374,-2.4902 l 0.4059,-0.7481 c -7.5302,0.0182 -14.8829,0.2875 -22.4027,0.6509 -0.8271,4.2553 5.279,0.8838 6.9715,3.7459 1.0928,1.8471 0.6738,18.1888 0.6835,21.4202 l 0.0649,10.9721 c 0.3376,-0.1874 3.7956,-4.5173 6.2178,-2.8803 2.2971,1.5525 -0.8073,5.0122 -2.6229,2.6359 -0.0295,-0.0391 -0.2449,-0.3968 -0.2826,-0.4598 l -0.2784,-0.4966 c -4.6457,2.5852 -4.5289,15.7986 -0.4,20.148 1.9264,2.0296 5.4731,3.6397 9.5153,3.6927 2.2493,0.0292 4.0533,-0.2109 5.9961,-0.7469 1.9463,-0.5372 4.1318,-1.6858 4.8739,-1.7853 z"
       style="fill:#fa6605;fill-rule:evenodd"
       id="path4" />
    <path
       d="m 82.0137,119.2759 c 0.1171,1.8309 2.1047,0.5936 4.4042,4.8078 1.1962,2.1912 1.6974,4.8934 1.5159,7.867 -0.7979,13.0985 -17.0823,11.6654 -17.764,-1.4471 -0.2396,-4.6125 1.3648,-9.153 5.6845,-10.6401 0.9788,-0.3373 0.73,-0.093 1.7635,-0.6426 -1.673,-0.8362 -10.5642,2.4908 -10.4998,11.2801 0.1032,14.0961 21.0959,15.154 23.642,1.6665 1.3161,-6.9701 -3.6176,-12.6946 -8.7463,-12.8916 z"
       style="fill:#000000;fill-rule:evenodd"
       id="path6" />
    <path
       d="m 82.0537,90.421 c 0.1417,1.0338 -0.6594,0.5278 2.1489,1.0613 0.9462,0.18 1.7286,0.4402 2.5583,0.8158 1.5106,0.6826 2.7779,1.584 3.6025,2.8834 1.408,4.1961 0.2166,6.8689 -1.9627,9.153 -0.7361,-0.6457 -0.8447,-2.868 -3.0458,-2.5191 -1.5216,0.2409 -2.5367,2.1719 -1.1557,3.6003 2.6028,2.6934 6.0976,-0.9136 7.1515,-2.9259 4.4232,-8.4461 -5.7852,-12.8928 -8.8917,-12.2148 -0.0674,0.0142 -0.1511,0.0536 -0.2049,0.0683 -0.0536,0.0142 -0.1375,0.0434 -0.2004,0.0777 z"
       style="fill:#000000;fill-rule:evenodd"
       id="path8" />
    <path
       d="m 58.6419,143.9253 4.3177,0.0394 8.0645,-0.2639 c -5.3611,-2.5316 -3.2023,-0.1715 -7.1033,-5.974 -0.9683,2.3956 1.3669,3.7267 -3.6303,3.2805 -1.2756,0.091 -2.2893,-0.0411 -2.6748,0.957 -0.4476,1.1597 0.4414,1.616 1.0262,1.961 z"
       style="fill:#fa6605;fill-rule:evenodd"
       id="path10" />
    <path
       d="m 83.4492,87.9906 0.0561,-2.3635 -1.9962,0.1587 c 0.2515,-1.5117 0.1001,-1.0205 -0.2347,-1.3062 l -0.1723,1.7396 2.2229,-0.2123 -0.0981,0.934 -2.1421,-0.1862 0.0734,1.345 c 1.2645,0.127 0.4025,-0.595 2.291,-0.1091 z"
       style="fill:#fa6605;fill-rule:evenodd"
       id="path12" />
    <path
       d="m 76.6288,87.6312 -0.0267,0.7256 2.1203,0.4343 -0.1403,-1.5021 c -1.3351,0.0669 -0.7157,0.3691 -1.9533,0.3422 z"
       style="fill:#d96b29;fill-rule:evenodd"
       id="path14" />
    <path
       d="m 78.643,89.1145 0.0794,-0.3234 -2.1203,-0.4343 c -0.3606,0.3773 -0.515,0.3121 -0.2012,1.0953 0.8345,0.4598 1.3113,-0.1199 2.2421,-0.3376 z"
       style="fill:#330500;fill-rule:evenodd"
       id="path16" />
    <path
       d="m 85.3461,84.0522 -4.4552,-0.2923 0.0187,9.9654 1.0766,-0.0731 -0.2401,-4.0799 3.8401,-0.4802 z"
       style="fill:#fa6605;fill-rule:evenodd;stroke:#fa6605;stroke-width:0.5669;stroke-linecap:butt;stroke-linejoin:miter;stroke-dasharray:none"
       id="path18" />
    <path
       d="m 80.9779,109.5956 -2.3034,0.0474 0.3243,27.7714 1.7787,1.1543 z"
       style="fill:#ffffff;fill-rule:evenodd;stroke:#ffffff;stroke-width:0.5669;stroke-linecap:butt;stroke-linejoin:miter;stroke-dasharray:none"
       id="path20" />
    <path
       d="m 78.5532,110.6705 2.3034,-0.011 0.0556,-26.2981 -1.7626,-1.1182 z"
       style="fill:#ffffff;fill-rule:evenodd;stroke:#ffffff;stroke-width:0.5669;stroke-linecap:butt;stroke-linejoin:miter;stroke-dasharray:none"
       id="path22" />
    <path
       d="m 69.5269,85.7654 h 20.6602 v 1.44 H 69.5269 Z"
       style="fill:#ffffff;fill-rule:evenodd;stroke:#ffffff;stroke-width:0.5669;stroke-linecap:butt;stroke-linejoin:miter;stroke-dasharray:none"
       id="path24" />
    <path
       d="m 99.6264,84.9632 6.0911,-0.0156 -0.0712,-5.9745 -6.0406,0.0776 z"
       style="fill:#102a83;fill-rule:evenodd"
       id="path26" />
    <path
       d="m 99.9742,84.6267 5.3618,-0.0207 -0.0103,-5.2219 -5.3515,-0.0133 z"
       style="fill:#102a83;fill-rule:evenodd"
       id="path28" />
    <path
       d="m 106.9426,84.2908 3.8231,0.0176 -0.019,-3.8319 -3.7976,0.0156 z"
       style="fill:#102a83;fill-rule:evenodd"
       id="path30" />
    <path
       d="m 98.5493,77.3621 3.8386,0.0729 -0.001,-3.6541 c -1.1942,-0.1565 -2.6943,-0.2682 -3.8279,0.0858 z"
       style="fill:#102a83;fill-rule:evenodd"
       id="path32" />
    <path
       d="m 101.0905,86.228 c -0.5927,0.093 -0.3107,1.0392 -0.2438,2.761 l 3.087,-0.0267 -0.0905,-3.0486 -2.1687,-0.0939 c -0.7319,0.1508 -0.3396,-0.0904 -0.584,0.4082 z"
       style="fill:#102a83;fill-rule:evenodd"
       id="path34" />
    <path
       d="m 105.6877,77.463 2.8786,0.0922 -0.1811,-2.7853 -2.6584,0.0853 z"
       style="fill:#102a83;fill-rule:evenodd"
       id="path36" />
    <path
       d="m 95.4969,82.7729 0.1568,0.0709 -0.0607,3.0203 2.7046,-0.0295 -0.0502,-2.7235 c -1.2558,-0.0777 -1.9086,0.1448 -2.7505,-0.3382 z"
       style="fill:#102a83;fill-rule:evenodd"
       id="path38" />
    <path
       d="m 101.0905,86.228 0.0896,2.4154 2.4454,0.0068 -0.1406,-2.3918 z"
       style="fill:#102a83;fill-rule:evenodd"
       id="path40" />
    <path
       d="m 95.4969,82.7729 c 0.8419,0.483 1.4947,0.2605 2.7505,0.3382 l 0.0502,2.7235 -2.7046,0.0295 0.0607,-3.0203 c -0.6999,0.2539 -0.5071,0.3806 -0.517,1.432 -0.0068,0.6902 0.0068,1.2223 0.1459,1.9514 l 3.3557,-0.044 -0.0491,-3.4324 z"
       style="fill:#102a83;fill-rule:evenodd"
       id="path42" />
    <path
       d="m 105.4457,89.0751 2.059,-0.0235 -0.0218,-2.0387 -2.0469,0.0346 z"
       style="fill:#102a83;fill-rule:evenodd"
       id="path44" />
    <path
       d="m 106.065,77.1782 2.0843,0.017 -0.1037,-2.0095 -1.931,0.006 z"
       style="fill:#102a83;fill-rule:evenodd"
       id="path46" />
    <path
       d="m 105.0712,72.7862 1.4669,-0.0394 c 6e-4,-0.1749 0.0213,-0.6225 -0.0204,-0.7784 -0.1338,-0.5023 -0.1253,-0.3572 -0.3081,-0.6653 l -1.1458,-0.0142 z"
       style="fill:#102a83;fill-rule:evenodd"
       id="path48" />
    <path
       d="m 105.957,88.5592 c 0.9244,0.1503 1.22,-0.0555 1.0077,-1.0077 -0.953,-0.146 -1.1094,0.0499 -1.0077,1.0077 z"
       style="fill:#102a83;fill-rule:evenodd"
       id="path50" />
    <path
       d="m 102.9104,108.21 v 2.3409 h 3.5109 c 0.1593,0 0.309,-0.0281 0.4479,-0.0859 0.1375,-0.0561 0.2639,-0.1434 0.3762,-0.2605 0.1122,-0.1123 0.1981,-0.2387 0.2573,-0.3776 0.0596,-0.1375 0.0891,-0.2871 0.0891,-0.4464 0,-0.1639 -0.0295,-0.3135 -0.0891,-0.451 -0.0592,-0.1358 -0.1451,-0.2605 -0.2573,-0.3728 -0.1123,-0.117 -0.2387,-0.2046 -0.3762,-0.2608 -0.1389,-0.0575 -0.2886,-0.0859 -0.4479,-0.0859 z m -2.3409,-4.6814 v -2.3408 h 5.8518 c 0.4822,0 0.9301,0.0859 1.3422,0.2591 0.4136,0.1718 0.7926,0.4292 1.1393,0.771 0.3415,0.3416 0.5992,0.7194 0.7707,1.1313 0.1732,0.4136 0.2591,0.8629 0.2591,1.3499 0,0.4493 -0.0748,0.8708 -0.2248,1.2608 -0.1497,0.3918 -0.3744,0.7523 -0.6741,1.08 0.2997,0.3277 0.5244,0.688 0.6741,1.0783 0.15,0.3915 0.2248,0.813 0.2248,1.2623 0,0.4821 -0.0859,0.9317 -0.2591,1.3453 -0.1715,0.415 -0.4292,0.7942 -0.7707,1.1361 -0.3467,0.3416 -0.7257,0.5992 -1.1393,0.7707 -0.4121,0.1732 -0.86,0.2591 -1.3422,0.2591 h -5.8518 v -7.0222 h 5.8518 c 0.1593,0 0.309,-0.0281 0.4479,-0.0859 0.1375,-0.0561 0.2639,-0.1437 0.3762,-0.2605 0.1122,-0.1125 0.1981,-0.239 0.2573,-0.3779 0.0596,-0.1372 0.0891,-0.2871 0.0891,-0.4461 0,-0.1639 -0.0295,-0.3138 -0.0891,-0.451 -0.0592,-0.1358 -0.1451,-0.2605 -0.2573,-0.3731 -0.1123,-0.117 -0.2387,-0.2043 -0.3762,-0.2605 -0.1389,-0.0578 -0.2886,-0.0859 -0.4479,-0.0859 z m 10.5335,-2.3408 h 2.3409 v 9.3631 h 5.8518 v 2.3408 h -8.1927 z m 9.3631,7.0222 v -7.0222 h 2.3408 v 7.0222 c 0,0.3232 0.0562,0.6228 0.1701,0.8989 0.1123,0.2764 0.284,0.5292 0.5134,0.7586 0.2293,0.2293 0.4821,0.4011 0.7582,0.5133 0.2764,0.114 0.576,0.1701 0.8989,0.1701 0.3231,0 0.6228,-0.0561 0.8974,-0.1701 0.2761,-0.1122 0.5259,-0.284 0.7507,-0.5133 0.2293,-0.2294 0.4025,-0.4822 0.5181,-0.7586 0.1171,-0.2761 0.1746,-0.5757 0.1746,-0.8989 v -7.0222 h 2.3409 v 7.0222 c 0,0.3093 -0.0298,0.6135 -0.0904,0.9117 -0.061,0.2996 -0.1531,0.5913 -0.2747,0.8767 -0.2342,0.5806 -0.5712,1.0862 -1.0114,1.5168 -0.22,0.2203 -0.4555,0.4153 -0.7084,0.5837 -0.2528,0.1701 -0.5227,0.3152 -0.8084,0.4371 -0.2855,0.1171 -0.5774,0.2061 -0.8771,0.2653 -0.2979,0.0607 -0.6023,0.0904 -0.9113,0.0904 -0.3135,0 -0.6194,-0.0297 -0.919,-0.0904 -0.2996,-0.0592 -0.593,-0.1482 -0.8784,-0.2653 -0.2858,-0.1219 -0.5542,-0.267 -0.8071,-0.4371 -0.2528,-0.1684 -0.4898,-0.3634 -0.71,-0.5837 -0.44,-0.4306 -0.777,-0.9362 -1.0112,-1.5168 -0.1216,-0.2854 -0.2106,-0.5771 -0.2684,-0.8767 -0.0592,-0.2982 -0.0873,-0.6024 -0.0873,-0.9117 z m 10.5335,-4.6814 v -2.3408 h 8.1927 v 2.3408 z m 8.1927,2.3409 v 2.3405 h -5.8519 v 2.3409 h 5.8519 v 2.3408 h -8.1927 v -7.0222 z m 2.3221,3.9325 c 0.0374,0.0561 0.1202,0.1264 0.2466,0.212 0.1279,0.0845 0.301,0.186 0.521,0.3027 0.239,0.1219 0.487,0.2172 0.7461,0.2841 0.2574,0.0672 0.5275,0.1046 0.8081,0.1094 h 0.0752 c 0.1825,0 0.3634,-0.0173 0.5414,-0.0516 0.1794,-0.0343 0.3574,-0.089 0.5352,-0.1638 0.1732,-0.0749 0.3058,-0.1781 0.3979,-0.309 0.0922,-0.131 0.1406,-0.2903 0.1452,-0.4776 v -0.0375 c 0,-0.1496 -0.0329,-0.2917 -0.0998,-0.426 -0.0686,-0.1341 -0.1718,-0.2574 -0.3121,-0.3696 -0.1406,-0.1171 -0.292,-0.2297 -0.4558,-0.3388 -0.1639,-0.1077 -0.3402,-0.2137 -0.5275,-0.3166 -0.1871,-0.1032 -0.379,-0.2047 -0.5757,-0.3028 -0.1968,-0.1 -0.398,-0.1984 -0.6038,-0.2965 -0.2483,-0.1077 -0.4825,-0.2279 -0.7039,-0.3591 -0.2233,-0.1327 -0.4339,-0.2778 -0.6352,-0.4368 -0.2013,-0.1545 -0.3793,-0.3215 -0.5352,-0.4995 -0.1576,-0.1794 -0.2934,-0.3713 -0.4104,-0.5774 -0.1029,-0.1919 -0.1795,-0.3977 -0.2311,-0.6194 -0.0513,-0.2199 -0.0779,-0.4572 -0.0779,-0.71 v -0.131 c 0.009,-0.3186 0.064,-0.6197 0.1621,-0.9037 0.0984,-0.284 0.2404,-0.5476 0.4278,-0.7911 0.1873,-0.2481 0.4073,-0.4666 0.6585,-0.6554 0.2528,-0.1888 0.5351,-0.3512 0.8489,-0.487 0.2948,-0.1264 0.5993,-0.2217 0.9145,-0.2871 0.3135,-0.0641 0.6398,-0.0967 0.9768,-0.0967 h 0.1406 c 0.8801,0.0281 1.6291,0.2341 2.247,0.6179 0.1451,0.0891 0.2667,0.1684 0.3651,0.2404 0.0984,0.07 0.1732,0.1341 0.2248,0.1902 l -1.0675,1.9664 c -0.0187,-0.0329 -0.0856,-0.0796 -0.2013,-0.1406 -0.1154,-0.0606 -0.2761,-0.1358 -0.4822,-0.2245 -0.2058,-0.0845 -0.4025,-0.1499 -0.5898,-0.1953 -0.1871,-0.0468 -0.3651,-0.0717 -0.5335,-0.0762 h -0.0751 c -0.1826,0 -0.3541,0.0232 -0.5134,0.0686 -0.1607,0.0467 -0.3104,0.1139 -0.451,0.2029 -0.1403,0.0887 -0.248,0.1965 -0.3214,0.3229 -0.0749,0.1264 -0.114,0.2715 -0.1185,0.4354 v 0.009 c 0,0.1687 0.0374,0.3169 0.1122,0.4434 0.0749,0.1278 0.1874,0.2355 0.3371,0.3245 0.1499,0.0842 0.3183,0.1732 0.5057,0.2637 0.1871,0.0904 0.3931,0.1811 0.6179,0.2698 0.1123,0.0471 0.2325,0.0984 0.3589,0.1531 0.1264,0.0561 0.2591,0.1139 0.3994,0.1749 0.3044,0.1358 0.5885,0.2806 0.8507,0.4368 0.2636,0.1545 0.5071,0.3214 0.7319,0.4995 0.2199,0.1777 0.4133,0.3651 0.5819,0.5632 0.167,0.1967 0.3076,0.4056 0.4198,0.6259 0.1077,0.2058 0.1871,0.426 0.2404,0.6568 0.0513,0.2327 0.078,0.4759 0.078,0.7288 v 0.0842 c -0.0188,0.7117 -0.2342,1.3203 -0.6461,1.826 -0.206,0.2526 -0.4447,0.4774 -0.7149,0.671 -0.2712,0.195 -0.5726,0.3588 -0.9051,0.4898 -0.3041,0.1264 -0.6224,0.2217 -0.9532,0.2872 -0.3325,0.064 -0.6758,0.0969 -1.0316,0.0969 h -0.1873 c -0.4822,-0.0187 -0.9394,-0.0828 -1.37,-0.1905 -0.4323,-0.1091 -0.8396,-0.2636 -1.2234,-0.4652 -0.3748,-0.1964 -0.6367,-0.3744 -0.7867,-0.5334 z m 17.2374,-8.6142 v 2.3408 h -3.5113 v 9.3631 H 152.9 v -9.3631 h -3.5113 v -2.3408 z m 7.0222,11.7039 c -0.3883,0 -0.7693,-0.0374 -1.1437,-0.1108 -0.3745,-0.0748 -0.7427,-0.184 -1.1033,-0.3291 -0.3557,-0.15 -0.6928,-0.3311 -1.0097,-0.5417 -0.3183,-0.212 -0.6148,-0.4555 -0.8909,-0.7319 -0.2715,-0.2716 -0.5119,-0.5664 -0.7225,-0.8833 -0.2107,-0.3183 -0.3918,-0.6568 -0.5417,-1.0173 -0.1497,-0.3606 -0.2605,-0.7257 -0.3323,-1.0987 -0.0717,-0.3714 -0.1077,-0.7506 -0.1077,-1.139 0,-0.3886 0.036,-0.7693 0.1077,-1.144 0.0718,-0.3728 0.1826,-0.7382 0.3323,-1.0939 0.1499,-0.3603 0.331,-0.6991 0.5417,-1.0174 0.2106,-0.3169 0.451,-0.6117 0.7225,-0.8833 0.2761,-0.2761 0.5726,-0.5195 0.8909,-0.7319 0.3169,-0.2106 0.654,-0.3917 1.0097,-0.5414 0.3606,-0.1451 0.7288,-0.2545 1.1033,-0.3294 0.3744,-0.0734 0.7554,-0.1108 1.1437,-0.1108 0.3841,0 0.7631,0.0374 1.1362,0.1108 0.3744,0.0749 0.7412,0.1843 1.1018,0.3294 0.3603,0.1497 0.6976,0.3308 1.0142,0.5414 0.3152,0.2124 0.6103,0.4558 0.8864,0.7319 0.2761,0.2716 0.5196,0.5664 0.7302,0.8833 0.2109,0.3183 0.3886,0.6571 0.5338,1.0174 0.1499,0.3557 0.2622,0.7211 0.337,1.0939 0.0751,0.3747 0.1126,0.7554 0.1126,1.144 0,0.3884 -0.0375,0.7676 -0.1126,1.139 -0.0748,0.373 -0.1871,0.7381 -0.337,1.0987 -0.1452,0.3605 -0.3229,0.699 -0.5338,1.0173 -0.2106,0.3169 -0.4541,0.6117 -0.7302,0.8833 -0.2761,0.2764 -0.5712,0.5199 -0.8864,0.7319 -0.3166,0.2106 -0.6539,0.3917 -1.0142,0.5417 -0.3606,0.1451 -0.7274,0.2543 -1.1018,0.3291 -0.3731,0.0734 -0.7521,0.1108 -1.1362,0.1108 z m 0,-2.3408 c 0.4822,0 0.9301,-0.0859 1.3422,-0.2591 0.4136,-0.1715 0.7926,-0.4292 1.1393,-0.7707 0.3416,-0.3419 0.5992,-0.7212 0.7707,-1.1362 0.1732,-0.4135 0.2591,-0.8628 0.2591,-1.345 0,-0.487 -0.0859,-0.9363 -0.2591,-1.3498 -0.1715,-0.4122 -0.4291,-0.7898 -0.7707,-1.1316 -0.3467,-0.3416 -0.7257,-0.5993 -1.1393,-0.7708 -0.4121,-0.1732 -0.86,-0.2591 -1.3422,-0.2591 -0.4867,0 -0.9362,0.0859 -1.3498,0.2591 -0.415,0.1715 -0.7943,0.4292 -1.1407,0.7708 -0.3418,0.3418 -0.5975,0.7194 -0.7662,1.1316 -0.17,0.4135 -0.2542,0.8628 -0.2542,1.3498 0,0.4822 0.0842,0.9315 0.2542,1.345 0.1687,0.415 0.4244,0.7943 0.7662,1.1362 0.3464,0.3415 0.7257,0.5992 1.1407,0.7707 0.4136,0.1732 0.8631,0.2591 1.3498,0.2591 z m 9.3634,-4.2415 v 6.5823 h -2.3408 v -12.2938 l 7.0222,7.1722 v -6.5823 h 2.3409 v 12.2845 z m 8.1927,-2.7808 v -2.3408 h 8.1926 v 2.3408 z m 8.1926,2.3409 v 2.3405 h -5.8518 v 2.3409 h 5.8518 v 2.3408 h -8.1926 v -7.0222 z"
       style="fill:#102a83;fill-rule:evenodd"
       id="path52" />
    <path
       d="m 104.8654,117.0017 h 4.1658 v 1.0973 h -1.3949 v 3.3411 h -1.37 v -3.3411 h -1.4009 z m 4.7854,0 h 3.6763 v 0.9484 h -2.3001 v 0.7067 h 2.1325 v 0.9051 h -2.1325 v 0.8739 h 2.3619 v 1.0043 h -3.7381 z m 7.4327,2.622 1.2028,0.366 c -0.0406,0.1672 -0.093,0.3223 -0.1571,0.4628 -0.0652,0.1415 -0.1406,0.2685 -0.2273,0.3802 -0.087,0.1145 -0.184,0.2137 -0.2925,0.2985 -0.1075,0.0859 -0.2251,0.157 -0.3524,0.216 -0.1301,0.0589 -0.2758,0.1023 -0.4379,0.1312 -0.1633,0.0278 -0.343,0.0422 -0.5415,0.0422 -0.2418,0 -0.4617,-0.0184 -0.659,-0.0547 -0.1984,-0.0351 -0.373,-0.0878 -0.525,-0.1559 -0.1519,-0.0714 -0.2945,-0.1695 -0.4266,-0.2934 -0.1332,-0.1241 -0.2554,-0.2738 -0.3668,-0.4507 -0.1117,-0.1766 -0.1953,-0.3781 -0.2511,-0.6032 -0.0559,-0.2262 -0.0837,-0.4753 -0.0837,-0.748 0,-0.3688 0.0496,-0.6942 0.1477,-0.9774 0.0992,-0.2821 0.2461,-0.5227 0.4411,-0.7211 0.1953,-0.1954 0.4308,-0.3422 0.7067,-0.4411 0.2761,-0.0984 0.5921,-0.148 0.9484,-0.148 0.2792,0 0.5293,0.0281 0.7492,0.0848 0.22,0.0558 0.4102,0.1417 0.5715,0.2562 0.161,0.1117 0.3005,0.2543 0.4192,0.4278 0.1179,0.1734 0.216,0.3781 0.2934,0.6137 l -1.2087,0.2667 c -0.0218,-0.0683 -0.0433,-0.1273 -0.066,-0.1769 -0.0219,-0.0496 -0.0457,-0.0898 -0.0703,-0.1207 -0.0746,-0.1055 -0.1676,-0.186 -0.279,-0.2418 -0.0558,-0.0278 -0.1148,-0.0496 -0.1765,-0.0641 -0.0621,-0.0156 -0.1273,-0.0227 -0.1954,-0.0227 -0.155,0 -0.2925,0.0321 -0.4132,0.0961 -0.12,0.0641 -0.2223,0.1579 -0.3059,0.2821 -0.1242,0.1859 -0.186,0.4773 -0.186,0.8739 0,0.248 0.0185,0.4558 0.0559,0.6242 0.0371,0.1672 0.093,0.2965 0.1672,0.3863 0.1488,0.186 0.3595,0.279 0.6324,0.279 0.2603,0 0.4587,-0.0743 0.595,-0.2231 0.0652,-0.0746 0.1219,-0.1644 0.1715,-0.2719 0.0485,-0.1063 0.089,-0.2304 0.1199,-0.373 z m 1.872,-2.622 h 1.37 v 1.5559 h 1.5004 v -1.5559 h 1.3762 v 4.4384 h -1.3762 v -1.7977 h -1.5004 v 1.7977 h -1.37 z m 6.9925,2.9692 1.3019,-0.0805 c 0.0156,0.1055 0.0372,0.1985 0.0661,0.279 0.0281,0.0805 0.0641,0.1488 0.1074,0.2046 0.0715,0.0899 0.1571,0.1571 0.2574,0.2004 0.1001,0.0443 0.2169,0.0661 0.3501,0.0661 0.0961,0 0.1831,-0.0114 0.2594,-0.0332 0.0754,-0.0227 0.1406,-0.0567 0.1933,-0.1032 0.0527,-0.0464 0.0918,-0.0961 0.1168,-0.1488 0.0258,-0.0527 0.0382,-0.1085 0.0382,-0.1675 0,-0.0587 -0.0124,-0.1134 -0.0374,-0.1641 -0.0246,-0.0508 -0.0618,-0.0992 -0.1114,-0.1457 -0.0496,-0.0465 -0.1332,-0.0919 -0.25,-0.1352 -0.1179,-0.0437 -0.2676,-0.0848 -0.4504,-0.1251 -0.3008,-0.0651 -0.559,-0.1425 -0.775,-0.2315 -0.216,-0.0899 -0.3875,-0.1902 -0.5145,-0.3016 -0.1301,-0.1148 -0.2262,-0.2438 -0.2894,-0.3864 -0.0641,-0.1437 -0.095,-0.3019 -0.095,-0.4754 0,-0.1117 0.0156,-0.2211 0.0485,-0.3296 0.032,-0.1075 0.0816,-0.2129 0.1499,-0.315 0.065,-0.1023 0.1477,-0.1922 0.2469,-0.2718 0.0993,-0.0785 0.2149,-0.1468 0.3481,-0.2055 0.1333,-0.059 0.2903,-0.1024 0.4712,-0.1313 0.1808,-0.028 0.3875,-0.0425 0.6199,-0.0425 0.282,0 0.5309,0.0258 0.7481,0.0785 0.2159,0.0528 0.3988,0.1324 0.5476,0.2379 0.1488,0.1051 0.2676,0.2418 0.3574,0.409 0.0888,0.1675 0.1477,0.3657 0.1755,0.595 l -1.2954,0.0745 c -0.0156,-0.0992 -0.0414,-0.1851 -0.0785,-0.2562 -0.0363,-0.0723 -0.0828,-0.1313 -0.1386,-0.1777 -0.0528,-0.0434 -0.1177,-0.0774 -0.1931,-0.1012 -0.0765,-0.0227 -0.1633,-0.0352 -0.2594,-0.0352 -0.0805,0 -0.1508,0.009 -0.2097,0.0269 -0.0598,0.0185 -0.1094,0.0443 -0.1497,0.0786 -0.0405,0.0309 -0.0714,0.068 -0.0921,0.1094 -0.0216,0.0414 -0.032,0.0859 -0.032,0.1324 0,0.0371 0.009,0.0711 0.0269,0.1031 0.0164,0.0309 0.0414,0.061 0.0723,0.089 0.034,0.0309 0.089,0.0587 0.1652,0.0845 0.0766,0.0269 0.1758,0.0519 0.2996,0.0765 0.2977,0.0652 0.5539,0.1302 0.7677,0.1965 0.214,0.0649 0.3855,0.1321 0.5156,0.2004 0.1301,0.0649 0.2429,0.1383 0.339,0.2188 0.095,0.0817 0.1724,0.1718 0.2313,0.2707 0.059,0.0993 0.1023,0.2036 0.1313,0.3121 0.0277,0.1097 0.0422,0.2243 0.0422,0.3453 0,0.1426 -0.0196,0.2789 -0.0598,0.4102 -0.0394,0.1301 -0.0981,0.2559 -0.1758,0.377 -0.0773,0.1207 -0.1715,0.2262 -0.282,0.3172 -0.1106,0.0898 -0.2356,0.1664 -0.375,0.2282 -0.1426,0.062 -0.3028,0.1085 -0.4805,0.1394 -0.1774,0.0312 -0.375,0.0465 -0.5919,0.0465 -0.375,0 -0.6942,-0.036 -0.9558,-0.1074 -0.2622,-0.0723 -0.4669,-0.1806 -0.6126,-0.3263 -0.1457,-0.1457 -0.2593,-0.311 -0.3398,-0.4972 -0.0817,-0.1848 -0.1313,-0.3895 -0.15,-0.6126 z m 4.7112,-2.9692 h 3.6762 v 0.9484 h -2.3 v 0.7067 h 2.1325 v 0.9051 h -2.1325 v 0.8739 h 2.3618 v 1.0043 h -3.738 z m 4.4943,4.4384 v -4.4384 h 2.2875 c 0.2106,0 0.3977,0.009 0.561,0.0277 0.1633,0.0188 0.3005,0.0465 0.4122,0.0837 0.1116,0.0343 0.2128,0.0847 0.3027,0.153 0.0899,0.0672 0.1684,0.1508 0.2367,0.2501 0.068,0.0992 0.1199,0.2077 0.1539,0.3265 0.034,0.1196 0.0505,0.25 0.0505,0.3926 0,0.1239 -0.0122,0.2387 -0.038,0.345 -0.025,0.1054 -0.0641,0.2035 -0.1168,0.2934 -0.0527,0.0867 -0.1148,0.1675 -0.1871,0.2398 -0.0714,0.0734 -0.1539,0.1383 -0.2469,0.1941 -0.059,0.0341 -0.1281,0.0661 -0.2086,0.0961 -0.0808,0.0301 -0.1726,0.0559 -0.275,0.0774 0.0836,0.0281 0.1551,0.0559 0.2149,0.0828 0.0589,0.0278 0.1074,0.0538 0.1446,0.0785 0.0249,0.0187 0.0558,0.0476 0.0921,0.0879 0.0371,0.0391 0.0785,0.0887 0.125,0.1477 0.0496,0.0589 0.0898,0.1117 0.1219,0.157 0.0309,0.0465 0.0547,0.0848 0.0703,0.1157 l 0.6633,1.2894 h -1.5497 l -0.7316,-1.3575 c -0.0465,-0.0867 -0.0899,-0.1593 -0.1313,-0.2171 -0.0402,-0.0578 -0.0796,-0.0992 -0.1168,-0.1239 -0.0496,-0.034 -0.1023,-0.0601 -0.1579,-0.0785 -0.0558,-0.0176 -0.1148,-0.0269 -0.1768,-0.0269 h -0.1239 v 1.8039 z m 1.3762,-2.6407 h 0.5828 c 0.0309,0 0.0762,-0.005 0.1352,-0.0145 0.0601,-0.0105 0.1344,-0.0258 0.2242,-0.0476 0.0465,-0.009 0.089,-0.0246 0.1262,-0.0476 0.0371,-0.0216 0.0691,-0.0516 0.0969,-0.0887 0.0281,-0.0372 0.0496,-0.0774 0.0641,-0.1208 0.0156,-0.0436 0.0229,-0.0901 0.0229,-0.1397 0,-0.0712 -0.0116,-0.1333 -0.0331,-0.188 -0.0227,-0.0535 -0.057,-0.1 -0.1035,-0.1406 -0.0465,-0.0371 -0.1114,-0.0649 -0.1962,-0.0836 -0.0836,-0.0184 -0.1879,-0.0278 -0.312,-0.0278 h -0.6075 z m 2.9942,-1.7977 h 1.4318 l 0.9981,3.1923 0.9856,-3.1923 h 1.3887 l -1.6427,4.4384 h -1.4879 z m 5.3124,0 h 1.3762 v 4.4384 h -1.3762 z m 5.3127,2.622 1.2027,0.366 c -0.0405,0.1672 -0.093,0.3223 -0.157,0.4628 -0.0652,0.1415 -0.1406,0.2685 -0.2274,0.3802 -0.087,0.1145 -0.1839,0.2137 -0.2925,0.2985 -0.1074,0.0859 -0.2251,0.157 -0.3523,0.216 -0.1302,0.0589 -0.2759,0.1023 -0.438,0.1312 -0.1633,0.0278 -0.343,0.0422 -0.5414,0.0422 -0.2418,0 -0.4618,-0.0184 -0.6591,-0.0547 -0.1984,-0.0351 -0.373,-0.0878 -0.5249,-0.1559 -0.152,-0.0714 -0.2946,-0.1695 -0.4267,-0.2934 -0.1332,-0.1241 -0.2554,-0.2738 -0.3668,-0.4507 -0.1116,-0.1766 -0.1953,-0.3781 -0.2511,-0.6032 -0.0558,-0.2262 -0.0836,-0.4753 -0.0836,-0.748 0,-0.3688 0.0496,-0.6942 0.1477,-0.9774 0.0992,-0.2821 0.246,-0.5227 0.441,-0.7211 0.1953,-0.1954 0.4309,-0.3422 0.7067,-0.4411 0.2761,-0.0984 0.5922,-0.148 0.9485,-0.148 0.2792,0 0.5292,0.0281 0.7492,0.0848 0.2199,0.0558 0.4101,0.1417 0.5714,0.2562 0.161,0.1117 0.3005,0.2543 0.4193,0.4278 0.1179,0.1734 0.216,0.3781 0.2934,0.6137 l -1.2087,0.2667 c -0.0219,-0.0683 -0.0434,-0.1273 -0.0661,-0.1769 -0.0218,-0.0496 -0.0456,-0.0898 -0.0703,-0.1207 -0.0745,-0.1055 -0.1675,-0.186 -0.2789,-0.2418 -0.0558,-0.0278 -0.1148,-0.0496 -0.1766,-0.0641 -0.0621,-0.0156 -0.1273,-0.0227 -0.1953,-0.0227 -0.1551,0 -0.2925,0.0321 -0.4133,0.0961 -0.1199,0.0641 -0.2222,0.1579 -0.3059,0.2821 -0.1241,0.1859 -0.1859,0.4773 -0.1859,0.8739 0,0.248 0.0184,0.4558 0.0558,0.6242 0.0372,0.1672 0.093,0.2965 0.1673,0.3863 0.1488,0.186 0.3594,0.279 0.6324,0.279 0.2602,0 0.4586,-0.0743 0.595,-0.2231 0.0652,-0.0746 0.1219,-0.1644 0.1715,-0.2719 0.0484,-0.1063 0.089,-0.2304 0.1199,-0.373 z m 1.8657,-2.622 h 3.6763 v 0.9484 h -2.3001 v 0.7067 h 2.1325 v 0.9051 h -2.1325 v 0.8739 h 2.3619 v 1.0043 h -3.7381 z m 4.2401,2.9692 1.3019,-0.0805 c 0.0156,0.1055 0.0372,0.1985 0.0661,0.279 0.028,0.0805 0.064,0.1488 0.1074,0.2046 0.0714,0.0899 0.157,0.1571 0.2574,0.2004 0.1001,0.0443 0.2168,0.0661 0.3501,0.0661 0.0961,0 0.1831,-0.0114 0.2593,-0.0332 0.0754,-0.0227 0.1406,-0.0567 0.1934,-0.1032 0.0527,-0.0464 0.0918,-0.0961 0.1167,-0.1488 0.0258,-0.0527 0.0383,-0.1085 0.0383,-0.1675 0,-0.0587 -0.0125,-0.1134 -0.0374,-0.1641 -0.0247,-0.0508 -0.0618,-0.0992 -0.1114,-0.1457 -0.0496,-0.0465 -0.1332,-0.0919 -0.25,-0.1352 -0.1179,-0.0437 -0.2676,-0.0848 -0.4504,-0.1251 -0.3008,-0.0651 -0.559,-0.1425 -0.775,-0.2315 -0.216,-0.0899 -0.3875,-0.1902 -0.5145,-0.3016 -0.1301,-0.1148 -0.2262,-0.2438 -0.2894,-0.3864 -0.0641,-0.1437 -0.095,-0.3019 -0.095,-0.4754 0,-0.1117 0.0156,-0.2211 0.0485,-0.3296 0.032,-0.1075 0.0816,-0.2129 0.1499,-0.315 0.0649,-0.1023 0.1477,-0.1922 0.2469,-0.2718 0.0992,-0.0785 0.2149,-0.1468 0.3481,-0.2055 0.1332,-0.059 0.2903,-0.1024 0.4711,-0.1313 0.1809,-0.028 0.3875,-0.0425 0.62,-0.0425 0.282,0 0.5309,0.0258 0.748,0.0785 0.216,0.0528 0.3989,0.1324 0.5477,0.2379 0.1488,0.1051 0.2676,0.2418 0.3574,0.409 0.0888,0.1675 0.1477,0.3657 0.1755,0.595 l -1.2954,0.0745 c -0.0156,-0.0992 -0.0414,-0.1851 -0.0786,-0.2562 -0.0362,-0.0723 -0.0827,-0.1313 -0.1386,-0.1777 -0.0527,-0.0434 -0.1176,-0.0774 -0.193,-0.1012 -0.0765,-0.0227 -0.1633,-0.0352 -0.2594,-0.0352 -0.0805,0 -0.1508,0.009 -0.2097,0.0269 -0.0598,0.0185 -0.1095,0.0443 -0.1497,0.0786 -0.0405,0.0309 -0.0714,0.068 -0.0921,0.1094 -0.0216,0.0414 -0.0321,0.0859 -0.0321,0.1324 0,0.0371 0.009,0.0711 0.027,0.1031 0.0164,0.0309 0.0414,0.061 0.0722,0.089 0.0341,0.0309 0.0891,0.0587 0.1653,0.0845 0.0765,0.0269 0.1758,0.0519 0.2996,0.0765 0.2977,0.0652 0.5539,0.1302 0.7676,0.1965 0.2141,0.0649 0.3856,0.1321 0.5157,0.2004 0.1301,0.0649 0.2429,0.1383 0.339,0.2188 0.095,0.0817 0.1723,0.1718 0.2313,0.2707 0.059,0.0993 0.1023,0.2036 0.1312,0.3121 0.0278,0.1097 0.0423,0.2243 0.0423,0.3453 0,0.1426 -0.0196,0.2789 -0.0598,0.4102 -0.0394,0.1301 -0.0981,0.2559 -0.1758,0.377 -0.0774,0.1207 -0.1715,0.2262 -0.282,0.3172 -0.1106,0.0898 -0.2356,0.1664 -0.3751,0.2282 -0.1425,0.062 -0.3027,0.1085 -0.4804,0.1394 -0.1775,0.0312 -0.375,0.0465 -0.5919,0.0465 -0.375,0 -0.6942,-0.036 -0.9558,-0.1074 -0.2622,-0.0723 -0.4669,-0.1806 -0.6126,-0.3263 -0.1457,-0.1457 -0.2594,-0.311 -0.3399,-0.4972 -0.0816,-0.1848 -0.1312,-0.3895 -0.1499,-0.6126 z m 6.7756,-2.9692 h 2.281 c 0.4961,0 0.868,0.1176 1.116,0.3532 0.1239,0.1179 0.2169,0.2613 0.279,0.4308 0.062,0.1695 0.0929,0.3629 0.0929,0.5797 0,0.2231 -0.034,0.4227 -0.1012,0.5981 -0.0683,0.1758 -0.1683,0.3254 -0.3018,0.4496 -0.1364,0.127 -0.3068,0.2219 -0.5123,0.284 -0.2046,0.0632 -0.4453,0.0941 -0.7211,0.0941 h -0.7503 v 1.6489 h -1.3822 z m 1.3822,1.8907 h 0.3347 c 0.1304,0 0.2418,-0.0114 0.3348,-0.0332 0.093,-0.0227 0.1675,-0.0567 0.2231,-0.1032 0.0527,-0.0465 0.0921,-0.0992 0.1168,-0.1582 0.0258,-0.0589 0.0383,-0.1238 0.0383,-0.1953 0,-0.068 -0.0114,-0.1321 -0.0329,-0.191 -0.023,-0.059 -0.057,-0.1125 -0.1035,-0.1622 -0.0465,-0.0496 -0.1125,-0.0858 -0.1993,-0.1085 -0.087,-0.0227 -0.1944,-0.034 -0.3214,-0.034 h -0.3906 z m 2.6657,-1.8907 h 1.4317 l 0.9981,3.1923 0.9856,-3.1923 h 1.3887 l -1.6427,4.4384 h -1.4879 z m 4.9467,0 h 4.1658 v 1.0973 h -1.395 v 3.3411 h -1.3699 v -3.3411 h -1.4009 z m 4.7111,3.2048 h 1.3142 v 1.2336 h -1.3142 z m 2.1385,-3.2048 h 1.3762 v 3.3474 h 2.1387 v 1.091 h -3.5149 z m 3.8251,0 h 4.1657 v 1.0973 h -1.3949 v 3.3411 h -1.37 v -3.3411 h -1.4008 z m 4.8041,0 h 2.0395 c 0.2016,0 0.3833,0.0133 0.5445,0.0414 0.1622,0.0266 0.3048,0.0671 0.4286,0.1196 0.1242,0.0558 0.2379,0.123 0.3402,0.2004 0.102,0.0785 0.193,0.1686 0.2735,0.2707 0.0808,0.1023 0.15,0.2129 0.209,0.3308 0.0578,0.1188 0.1043,0.2458 0.1383,0.3821 0.0371,0.1363 0.0652,0.2761 0.0836,0.4195 0.0187,0.1426 0.0281,0.2903 0.0281,0.4422 0,0.2356 -0.0136,0.4453 -0.0414,0.6282 -0.0269,0.184 -0.0672,0.3421 -0.1199,0.4754 -0.0559,0.1301 -0.1208,0.2488 -0.1962,0.3574 -0.0745,0.1086 -0.1601,0.2066 -0.2562,0.2934 -0.1922,0.1797 -0.3969,0.2976 -0.6137,0.3535 -0.152,0.0402 -0.2957,0.0711 -0.432,0.0918 -0.1364,0.0218 -0.2656,0.032 -0.3864,0.032 h -2.0395 z m 1.37,1.0043 v 2.4236 h 0.341 c 0.1426,0 0.2644,-0.008 0.3668,-0.0235 0.1012,-0.0156 0.1817,-0.0383 0.2406,-0.0695 0.0621,-0.0309 0.1168,-0.0743 0.1633,-0.1301 0.0476,-0.0558 0.0879,-0.1239 0.1219,-0.2047 0.034,-0.0773 0.0598,-0.1805 0.0785,-0.3098 0.0176,-0.1292 0.027,-0.282 0.027,-0.4586 0,-0.2356 -0.0196,-0.434 -0.059,-0.5953 -0.0391,-0.161 -0.0961,-0.2852 -0.1704,-0.3719 -0.155,-0.1735 -0.4093,-0.2602 -0.7625,-0.2602 z"
       style="fill:#102a83;fill-rule:evenodd"
       id="path54" />
  </g>
</svg>
