<?xml version="1.0" encoding="utf-8"?>
<svg viewBox="254.0094 77.564 48.0815 60.722" width="48.0815" height="60.722" xmlns="http://www.w3.org/2000/svg">
  <path d="M 284.825 135.022 C 285.338 134.333 285.729 134.243 286.461 133.719 C 289.505 131.539 290.063 129.385 290.848 128.59 C 290.767 126.624 293.558 120.102 286.586 114.113 C 283.695 111.63 277.237 109.528 273.212 107.327 C 269.453 105.271 264.733 101.324 264.994 95.294 C 265.118 92.429 266.616 89.76 268.107 88.246 C 270.051 86.327 272.445 85.313 275.171 84.966 C 275.234 86.926 274.948 85.757 272.08 87.905 C 268.103 90.882 267.047 96.334 270.057 100.644 C 276.434 109.78 294.985 109.48 294.934 123.862 C 294.921 127.612 293.491 130.65 291.817 132.841 C 289.763 135.529 287.842 136.435 284.982 138.243 C 293.193 137.887 301.008 131.614 302.08 122.18 C 302.234 116.835 300.748 113.29 298.103 110.283 C 295.207 106.991 292.642 105.663 288.924 103.764 C 289.819 102.956 291.374 101.252 292.327 100.632 C 292.471 99.951 292.263 100.499 292.683 99.865 C 293.345 98.866 293.47 98.979 294.309 97.402 C 298.194 90.095 294.9 80.439 288.175 78.546 L 278.45 78.081 L 278.325 78.606 L 278.834 78.801 C 279.168 79.087 279.32 78.595 279.068 80.107 L 281.065 79.948 L 281.008 82.312 L 280.737 83.059 L 278.459 83.064 C 278.126 90.492 278.321 98.002 278.25 105.515 L 276.472 104.422 C 276.282 99.062 276.705 90.519 276.454 85.931 C 276.401 84.967 276.152 84.474 276.202 83.436 C 275.271 83.653 274.795 84.233 273.96 83.773 C 273.646 82.99 273.801 83.055 274.161 82.678 L 274.188 81.952 L 276.12 81.363 C 276.333 79.599 275.794 79.771 276.083 78.873 L 276.489 78.125 C 268.959 78.143 261.606 78.413 254.086 78.776 C 253.259 83.031 259.365 79.66 261.058 82.522 C 262.15 84.369 261.731 100.711 261.741 103.942 L 261.806 114.914 C 262.144 114.727 265.602 110.397 268.024 112.034 C 270.321 113.586 267.217 117.046 265.401 114.67 C 265.371 114.631 265.156 114.273 265.118 114.21 L 264.84 113.713 C 260.194 116.299 260.311 129.512 264.44 133.861 C 266.366 135.891 269.913 137.501 273.955 137.554 C 276.205 137.583 278.009 137.343 279.951 136.807 C 281.898 136.27 284.083 135.121 284.825 135.022 L 284.825 135.022 Z" style="fill:#fa6605;fill-rule:evenodd" id="path4" transform="matrix(1, 0, 0, 1, 3.552713678800501e-15, 0)"/>
  <path d="M 279.573 113.597 C 279.69 115.428 281.678 114.191 283.977 118.405 C 285.173 120.596 285.675 123.298 285.493 126.272 C 284.695 139.37 268.411 137.937 267.729 124.825 C 267.489 120.212 269.094 115.672 273.414 114.185 C 274.392 113.847 274.144 114.092 275.177 113.542 C 273.504 112.706 264.613 116.033 264.677 124.822 C 264.78 138.918 285.773 139.976 288.319 126.489 C 289.635 119.519 284.702 113.794 279.573 113.597 L 279.573 113.597 Z" style="fill:#000000;fill-rule:evenodd" id="path6" transform="matrix(1, 0, 0, 1, 3.552713678800501e-15, 0)"/>
  <path d="M 279.613 84.742 C 279.755 85.776 278.954 85.27 281.762 85.804 C 282.708 85.984 283.49 86.244 284.32 86.619 C 285.831 87.302 287.098 88.203 287.923 89.503 C 289.331 93.699 288.139 96.372 285.96 98.656 C 285.224 98.01 285.115 95.788 282.914 96.137 C 281.393 96.378 280.377 98.309 281.758 99.737 C 284.361 102.43 287.856 98.823 288.91 96.811 C 293.333 88.365 283.125 83.918 280.018 84.596 C 279.951 84.61 279.867 84.65 279.813 84.665 C 279.76 84.679 279.676 84.708 279.613 84.742 L 279.613 84.742 Z" style="fill:#000000;fill-rule:evenodd" id="path8" transform="matrix(1, 0, 0, 1, 3.552713678800501e-15, 0)"/>
  <path d="M 256.201 138.247 L 260.519 138.286 L 268.583 138.022 C 263.222 135.49 265.381 137.851 261.48 132.048 C 260.512 134.444 262.847 135.775 257.85 135.329 C 256.574 135.42 255.56 135.287 255.175 136.286 C 254.727 137.445 255.616 137.902 256.201 138.247 L 256.201 138.247 Z" style="fill:#fa6605;fill-rule:evenodd" id="path10" transform="matrix(1, 0, 0, 1, 3.552713678800501e-15, 0)"/>
  <path d="M 281.008 82.312 L 281.065 79.948 L 279.068 80.107 C 279.32 78.595 279.168 79.087 278.834 78.801 L 278.661 80.54 L 280.884 80.328 L 280.786 81.262 L 278.644 81.076 L 278.717 82.421 C 279.982 82.548 279.12 81.826 281.008 82.312 L 281.008 82.312 Z" style="fill:#fa6605;fill-rule:evenodd" id="path12" transform="matrix(1, 0, 0, 1, 3.552713678800501e-15, 0)"/>
  <path d="M 274.188 81.952 L 274.161 82.678 L 276.282 83.112 L 276.141 81.61 C 274.806 81.677 275.426 81.979 274.188 81.952 Z" style="fill:#d96b29;fill-rule:evenodd" id="path14" transform="matrix(1, 0, 0, 1, 3.552713678800501e-15, 0)"/>
  <path d="M 276.202 83.436 L 276.282 83.112 L 274.161 82.678 C 273.801 83.055 273.646 82.99 273.96 83.773 C 274.795 84.233 275.271 83.653 276.202 83.436 Z" style="fill:#330500;fill-rule:evenodd" id="path16" transform="matrix(1, 0, 0, 1, 3.552713678800501e-15, 0)"/>
  <path d="M 282.905 78.373 L 278.45 78.081 L 278.469 88.047 L 279.545 87.973 L 279.305 83.894 L 283.145 83.413 L 282.905 78.373 Z" style="fill:#fa6605;fill-rule:evenodd;stroke:#fa6605;stroke-width:0.5669;stroke-linecap:butt;stroke-linejoin:miter;stroke-dasharray:none" id="path18" transform="matrix(1, 0, 0, 1, 3.552713678800501e-15, 0)"/>
  <path d="M 278.537 103.917 L 276.234 103.964 L 276.558 131.736 L 278.337 132.89 L 278.537 103.917 Z" style="fill:#ffffff;fill-rule:evenodd;stroke:#ffffff;stroke-width:0.5669;stroke-linecap:butt;stroke-linejoin:miter;stroke-dasharray:none" id="path20" transform="matrix(1, 0, 0, 1, 3.552713678800501e-15, 0)"/>
  <path d="M 276.112 104.992 L 278.416 104.981 L 278.471 78.683 L 276.709 77.564 L 276.112 104.992 Z" style="fill:#ffffff;fill-rule:evenodd;stroke:#ffffff;stroke-width:0.5669;stroke-linecap:butt;stroke-linejoin:miter;stroke-dasharray:none" id="path22" transform="matrix(1, 0, 0, 1, 3.552713678800501e-15, 0)"/>
  <path d="M 267.086 80.087 L 287.746 80.087 L 287.746 81.527 L 267.086 81.527 L 267.086 80.087 Z" style="fill:#ffffff;fill-rule:evenodd;stroke:#ffffff;stroke-width:0.5669;stroke-linecap:butt;stroke-linejoin:miter;stroke-dasharray:none" id="path24" transform="matrix(1, 0, 0, 1, 3.552713678800501e-15, 0)"/>
</svg>